<svg xmlns="http://www.w3.org/2000/svg" xmlns:xlink="http://www.w3.org/1999/xlink" width="284.398" height="178.818" viewBox="0 0 284.398 178.818"><defs><linearGradient id="a" x1="-1.046" y1="3.581" x2="0.789" y2="-0.013" gradientUnits="objectBoundingBox"><stop offset="0" stop-color="#01f0b1"/><stop offset="0.123" stop-color="#06eab3"/><stop offset="0.278" stop-color="#14daba"/><stop offset="0.45" stop-color="#2cc0c5"/><stop offset="0.635" stop-color="#4e9cd4"/><stop offset="0.828" stop-color="#786fe8"/><stop offset="1" stop-color="#a440fd"/></linearGradient><linearGradient id="b" x1="-2.656" y1="4.584" x2="-0.335" y2="1.577" gradientUnits="objectBoundingBox"><stop offset="0" stop-color="#01f0b1"/><stop offset="1" stop-color="#a440fd"/></linearGradient><linearGradient id="c" x1="-0.174" y1="1.595" x2="1.378" y2="-1.361" xlink:href="#b"/><linearGradient id="d" x1="-0.499" y1="1.595" x2="0.505" y2="0.496" gradientUnits="objectBoundingBox"><stop offset="0" stop-color="#01f0b1"/><stop offset="0.145" stop-color="#04ebb2"/><stop offset="0.296" stop-color="#10dfb8"/><stop offset="0.45" stop-color="#23cac1"/><stop offset="0.606" stop-color="#3eadcd"/><stop offset="0.764" stop-color="#6187de"/><stop offset="0.921" stop-color="#8b5af1"/><stop offset="1" stop-color="#a440fd"/></linearGradient></defs><g transform="translate(-254.355 -348.869)"><g transform="translate(315.914 365.316)" opacity="0.88"><path d="M399.023,436.9a31.3,31.3,0,0,1-12.068-1.978q-1.913-.791-.989-2.836l2.044-4.352a2.335,2.335,0,0,1,3.1-1.451,21.324,21.324,0,0,0,6.529,1.055q5.408,0,5.408-2.044,0-1.451-4.221-2.836-1.912-.66-3.264-1.286a15.78,15.78,0,0,1-2.869-1.781,7.737,7.737,0,0,1-2.341-2.9,9.249,9.249,0,0,1-.825-3.99,13.049,13.049,0,0,1,1.286-5.968,9.8,9.8,0,0,1,3.627-3.99,17.619,17.619,0,0,1,5.276-2.143,28.646,28.646,0,0,1,6.561-.692q7.254,0,11.277,1.781,1.846.858.923,2.836l-1.978,4.352a2.4,2.4,0,0,1-3.1,1.451,21.986,21.986,0,0,0-6.133-.857q-4.155,0-4.155,2.044,0,1.583,4.418,3.3a19.047,19.047,0,0,1,6.694,3.957,8.141,8.141,0,0,1,2.341,6.067Q416.565,436.9,399.023,436.9Z" transform="translate(-385.665 -392.32)" fill="url(#a)"/><path d="M478.633,403.339l-2.176,12.135a2.691,2.691,0,0,0,.33,2.275,3.188,3.188,0,0,0,2.308.626q.264,0,1.088-.1a11.765,11.765,0,0,1,1.352-.1q1.781,0,1.517,2.044l-.989,5.276a2.55,2.55,0,0,1-.791,1.549,4.207,4.207,0,0,1-1.781.759,26.459,26.459,0,0,1-5.8.594q-5.606,0-8.375-1.946t-2.77-6.561a18.523,18.523,0,0,1,.33-3.627l2.308-12.926h-2.045q-2.308,0-1.912-2.242l.857-5.144a2.412,2.412,0,0,1,2.506-2.242h2.374l1.385-7.782a2.315,2.315,0,0,1,2.572-1.978h8.573a2.459,2.459,0,0,1,1.714.495,1.5,1.5,0,0,1,.33,1.484l-1.385,7.782h5.144q2.44,0,1.978,2.242l-.857,5.144a2.392,2.392,0,0,1-2.572,2.242Z" transform="translate(-425.77 -383.951)" fill="url(#b)"/></g><path d="M397.1,517.685q16.062,0,16.062,11.331a22.011,22.011,0,0,1-.35,3.68,15.416,15.416,0,0,1-9.7,12.149l4.965,11.564a2.112,2.112,0,0,1,.058,1.869,1.567,1.567,0,0,1-1.518.759h-8.06a2.627,2.627,0,0,1-2.745-1.694l-4.147-10.572h-3.446l-1.811,10.163a2.235,2.235,0,0,1-2.336,2.1h-8.411q-2.278,0-1.869-2.1l6.542-37.147a2.19,2.19,0,0,1,2.337-2.1Zm-2.92,19.158a6.863,6.863,0,0,0,4.117-1.022,4.964,4.964,0,0,0,1.782-3.242,6.721,6.721,0,0,0,.117-1.4,2.513,2.513,0,0,0-1.052-2.337,6.912,6.912,0,0,0-3.446-.642H391.5l-1.518,8.644Z" transform="translate(-63.414 -89.674)" fill="#4d4d4d"/><path d="M496.7,520.016q4.38,3.826,4.38,11.711a32.12,32.12,0,0,1-.584,5.958q-3.8,21.26-22.253,21.26-7.71,0-12.061-3.826t-4.351-11.652a32.448,32.448,0,0,1,.584-6.016q3.8-21.26,22.2-21.26Q492.32,516.19,496.7,520.016Zm-12.061,25.611q1.957-2.453,2.95-8.06a31.009,31.009,0,0,0,.467-4.614q0-5.9-4.731-5.9a6.171,6.171,0,0,0-5.052,2.453q-1.956,2.454-2.95,8.061a30.98,30.98,0,0,0-.467,4.614q0,5.9,4.731,5.9A6.169,6.169,0,0,0,484.639,545.627Z" transform="translate(-110.21 -88.88)" fill="#4d4d4d"/><path d="M578.3,546.8a3.154,3.154,0,0,1,1.9-.263,1.6,1.6,0,0,1,.906,1.2l1.518,5.257a1.9,1.9,0,0,1-.059,1.548,3.889,3.889,0,0,1-1.46,1.256,23.35,23.35,0,0,1-12.149,3.154q-8,0-12.645-3.972t-4.644-11.857a32.064,32.064,0,0,1,.526-5.548q3.8-21.377,22.837-21.378a26,26,0,0,1,7.067.905,15.661,15.661,0,0,1,4.965,2.19,2.482,2.482,0,0,1,1.022,1.2,2.394,2.394,0,0,1-.438,1.606l-3.329,5.2a2.6,2.6,0,0,1-1.344,1.256,2.642,2.642,0,0,1-1.811-.322,13.126,13.126,0,0,0-5.432-1.051q-4.789,0-7.214,2.336t-3.417,8.061a26.906,26.906,0,0,0-.409,3.8q0,3.563,1.84,5.081t5.812,1.519A16.853,16.853,0,0,0,578.3,546.8Z" transform="translate(-157.927 -88.88)" fill="#4d4d4d"/><path d="M654.6,519.613a4.482,4.482,0,0,1,3.27-1.928h9.521a1.164,1.164,0,0,1,1.285.818,1.962,1.962,0,0,1-.642,1.811l-14.894,16.7,8.82,19.391a1.926,1.926,0,0,1,.029,1.811,1.55,1.55,0,0,1-1.489.818h-8.761A2.815,2.815,0,0,1,649,557.11l-6.6-14.835-2.57,14.66a2.219,2.219,0,0,1-2.394,2.1H628.9q-2.219,0-1.811-2.1l6.542-37.147a2.19,2.19,0,0,1,2.337-2.1H644.5q2.219,0,1.869,2.1l-2.044,11.506Z" transform="translate(-197.962 -89.674)" fill="#4d4d4d"/><path d="M725.023,543.092l-.992,5.432h14.251q2.22,0,1.869,2.1l-1.11,6.308a2.264,2.264,0,0,1-2.395,2.1H711.882q-2.219,0-1.81-2.1l6.542-37.147a2.19,2.19,0,0,1,2.336-2.1h24.414q2.219,0,1.869,2.1l-1.11,6.308a2.219,2.219,0,0,1-2.394,2.1H727.652l-.876,4.848H739.8q2.161,0,1.811,2.1l-1.052,5.9a2.169,2.169,0,0,1-2.337,2.044Z" transform="translate(-242.04 -89.674)" fill="#4d4d4d"/><path d="M791.409,519.788a2.19,2.19,0,0,1,2.336-2.1H821.43q2.219,0,1.869,2.1l-1.226,7.009a2.293,2.293,0,0,1-2.453,2.1h-7.535l-4.906,28.036a2.264,2.264,0,0,1-2.4,2.1h-8.527q-2.219,0-1.81-2.1l4.906-28.036h-7.417q-2.161,0-1.752-2.1Z" transform="translate(-284.593 -89.674)" fill="#4d4d4d"/><path d="M264.772,654.1a22.507,22.507,0,0,1,4.794-2.274l-.911,4.735c-.488,6.12-.411,10.33,4.078,16.683a27.544,27.544,0,0,0,5.121,5.305,1.655,1.655,0,0,0,2.818-.842c.759-2.545.051-3.276,3.4-8.058,4.279-6.111,10.1-10.324,11.74-12.821,4.533-6.92,3.594-14.967-4.242-19.161-1.5-.8-3.3-1.716-4.96-1.5-.47,1.917,0,2.379-1.417,5.79-.753,1.81-5.58,8.335-7.153,6.109-4.7-6.659-2.145-12.479-2.333-13.936-2.2-.843-7.92.308-10.474,2.112-4.428,3.129-5.628,6.9-5.8,12.048-.06,1.8-.312,8.805,2.5,8.129.869-.209,1.826-1.6,2.844-2.318" transform="translate(-2.678 -151.378)" fill-rule="evenodd" opacity="0.88" fill="url(#c)"/><path d="M313.258,348.931c-45.005,16.408-54.8,29.688-58.6,48.287-.751,3.674-.094,3.849,1.875,5.626,1.07.965,2.641,2.148,5.714.759l14.428-6.693-12.047,68.269q-1.041,5.355,4.611,5.355h21.12q5.057,0,6.1-5.355l16.658-94.595a7.67,7.67,0,0,0,.107-1.724C314.794,358.935,315.949,347.949,313.258,348.931Z" transform="translate(0 0)" fill-rule="evenodd" opacity="0.88" fill="url(#d)"/></g></svg>